<?xml version="1.0" encoding="UTF-8"?> <svg xmlns="http://www.w3.org/2000/svg" width="20" height="20" viewBox="0 0 20 20" fill="none"><path fill-rule="evenodd" clip-rule="evenodd" d="M18.8168 0.00553368C18.8073 0.00750339 18.7504 0.0154877 18.6904 0.0232845C18.2775 0.0768652 17.728 0.309806 17.1469 0.677661C16.9745 0.786768 16.5288 1.09497 16.3814 1.20695C16.0727 1.44146 15.8072 1.64829 15.7955 1.66331C15.7923 1.66738 15.7406 1.70963 15.6806 1.75721C15.6206 1.80479 15.5632 1.85211 15.5531 1.86237C15.543 1.87262 15.5148 1.89684 15.4904 1.91618C15.4034 1.98529 14.9655 2.36095 14.8879 2.43302C14.8658 2.45356 14.7805 2.52996 14.6984 2.60279C14.6163 2.67561 14.5232 2.76003 14.4916 2.79037C14.46 2.82072 14.3799 2.89446 14.3136 2.95424C14.2017 3.05505 13.994 3.2488 13.9242 3.31743C13.9077 3.33365 13.8167 3.42051 13.7219 3.51046C13.3119 3.89968 13.0546 4.15597 12.2801 4.9466C11.446 5.79815 11.3028 5.94695 10.9254 6.35404C10.6974 6.59994 10.3866 6.93521 10.2463 7.08666C10.1985 7.13825 10.0645 7.28598 9.9485 7.41495C9.83251 7.54392 9.73171 7.65471 9.72448 7.66116C9.71724 7.66761 9.62694 7.76785 9.5238 7.88393C9.42065 8 9.3094 8.12398 9.27657 8.15945C9.24373 8.19492 9.14041 8.31099 9.04696 8.41739C8.95351 8.52379 8.82987 8.66353 8.77219 8.72793C8.62496 8.89232 8.59118 8.93083 8.44286 9.10327C8.37076 9.1871 8.30569 9.26096 8.29827 9.26741C8.29084 9.27386 8.22155 9.353 8.14427 9.44328C7.83074 9.80955 7.67882 9.98666 7.61193 10.0639C7.49411 10.1998 7.44348 10.259 7.30976 10.4171C7.08218 10.6861 6.75158 11.0826 6.61403 11.2515L6.54503 11.3362L6.39997 11.2578C6.32017 11.2148 6.18768 11.1438 6.10555 11.1002C5.91777 11.0005 5.12162 10.5954 4.96826 10.5216C4.90507 10.4911 4.80027 10.4405 4.73535 10.4091C4.67044 10.3776 4.61542 10.3519 4.6131 10.3519C4.61079 10.3519 4.53818 10.3176 4.45174 10.2757C4.36531 10.2338 4.29109 10.1995 4.28679 10.1995C4.28251 10.1996 4.25831 10.1893 4.23304 10.1768C4.20777 10.1643 4.16899 10.1463 4.14688 10.1369C4.12477 10.1274 4.01879 10.0818 3.91138 10.0356C3.63281 9.9156 3.46839 9.84836 3.2853 9.77953C3.25055 9.76647 3.18851 9.74263 3.14744 9.72654C2.9288 9.64092 2.49307 9.50368 2.23417 9.43888C1.84523 9.34156 1.64928 9.31431 1.33812 9.31431C1.06537 9.31431 0.955406 9.32865 0.781482 9.38688C0.292815 9.5505 0.00107152 9.96417 3.15631e-06 10.495C-0.000261062 10.6277 0.0160171 10.7031 0.0662416 10.8015C0.116076 10.8992 0.145025 10.9309 0.407612 11.1753C0.850121 11.5872 1.49336 12.2428 1.93559 12.7327C2.04741 12.8566 2.35109 13.2083 2.44117 13.3182C2.49136 13.3795 2.5382 13.4349 2.54527 13.4413C2.56566 13.4599 2.99689 14.0054 3.07823 14.1155C3.11874 14.1703 3.15522 14.2178 3.15932 14.221C3.16753 14.2274 3.62315 14.8508 3.68709 14.9431C3.70905 14.9747 3.75078 15.035 3.77983 15.0769C4.09991 15.5387 4.49363 16.1373 4.73617 16.5307C4.75804 16.5662 4.80416 16.64 4.83869 16.6948C4.91586 16.8174 5.11245 17.1387 5.18303 17.2576C5.21174 17.306 5.28579 17.43 5.34758 17.5331C5.49581 17.7806 5.81843 18.3348 5.89024 18.4652C5.90621 18.4943 5.92804 18.5312 5.93874 18.5473C5.94945 18.5634 5.98103 18.618 6.0089 18.6685C6.03678 18.7191 6.06496 18.7692 6.07151 18.7799C6.07805 18.7906 6.09763 18.8258 6.115 18.858C6.13237 18.8902 6.15802 18.9363 6.17201 18.9603C6.18601 18.9843 6.20838 19.0238 6.22174 19.0482C6.26639 19.1296 6.29816 19.186 6.31936 19.2215C6.33091 19.2408 6.35004 19.2751 6.36186 19.2977C6.37367 19.3202 6.42294 19.4093 6.47133 19.4956C6.51971 19.582 6.55931 19.6551 6.55931 19.6583C6.55931 19.6614 6.58298 19.6979 6.6119 19.7392C6.7015 19.8674 6.81956 19.9476 6.96939 19.9821C7.07285 20.0059 7.1138 20.006 7.2176 19.9823C7.31513 19.96 7.40551 19.9138 7.48163 19.8473C7.53639 19.7995 7.61784 19.6882 7.63076 19.6435C7.6345 19.6306 7.66437 19.5541 7.69713 19.4735C7.7299 19.3929 7.76645 19.3019 7.77835 19.2713C7.79025 19.2407 7.80973 19.1905 7.82165 19.1599C7.86238 19.0552 7.92732 18.8932 7.94269 18.858C7.96223 18.8133 8.01434 18.6862 8.04123 18.6177C8.06145 18.5661 8.10505 18.4598 8.14454 18.3656C8.15535 18.3398 8.17614 18.2897 8.19072 18.2542C8.20531 18.2187 8.22619 18.1686 8.23711 18.1428C8.24804 18.117 8.28936 18.0194 8.32893 17.9259C8.43309 17.6799 8.70908 17.0459 8.76274 16.9293C8.78797 16.8745 8.8323 16.7758 8.86124 16.7099C8.91115 16.5964 8.93929 16.5349 9.08034 16.2317C9.11334 16.1608 9.17084 16.0368 9.20813 15.9562C9.27685 15.8076 9.89111 14.5564 9.98516 14.3734C10.0609 14.2261 10.1438 14.0677 10.2582 13.8517C10.2788 13.813 10.3216 13.7312 10.3534 13.6699C10.3852 13.6087 10.4433 13.5005 10.4824 13.4296C10.5215 13.3587 10.5784 13.2531 10.6088 13.1951C10.6392 13.1371 10.6727 13.0764 10.6834 13.0603C10.694 13.0441 10.706 13.023 10.71 13.0134C10.714 13.0037 10.733 12.9694 10.7522 12.9372C10.7714 12.9049 10.805 12.8442 10.827 12.8023C10.849 12.7604 10.8797 12.705 10.8952 12.6792C10.9107 12.6534 10.9438 12.5954 10.9687 12.5503C11.0103 12.4749 11.175 12.187 11.2001 12.1458C11.2165 12.1188 11.2841 12.0021 11.2985 11.9758C11.3163 11.9433 11.3822 11.8318 11.4128 11.7823C11.4268 11.7597 11.5176 11.6094 11.6146 11.4482C11.7116 11.2869 11.8015 11.1383 11.8145 11.1178C11.8274 11.0973 11.8583 11.0472 11.8831 11.0064C11.9442 10.9063 12.0166 10.7906 12.102 10.6568C12.1411 10.5955 12.2031 10.4979 12.2397 10.4399C12.3113 10.3263 12.6881 9.7508 12.7737 9.62415C12.8024 9.58177 12.8488 9.51318 12.8768 9.47173C12.9047 9.43029 12.9926 9.30224 13.072 9.18718C13.1515 9.07213 13.2242 8.96661 13.2337 8.95271C13.2432 8.93881 13.2847 8.87994 13.326 8.82191C13.3674 8.76386 13.4268 8.68013 13.4582 8.63585C13.5182 8.55105 13.8223 8.13118 13.846 8.10045C13.8536 8.09057 13.8907 8.04045 13.9286 7.98907C13.9664 7.93768 14 7.89301 14.0032 7.88979C14.0065 7.88656 14.0401 7.84179 14.0781 7.79027C14.116 7.73877 14.1556 7.68601 14.1662 7.67303C14.1895 7.64437 14.3293 7.46102 14.42 7.34022C14.4564 7.2917 14.4977 7.23854 14.5119 7.22209C14.5261 7.20564 14.5758 7.14206 14.6224 7.0808C14.6691 7.01954 14.7132 6.96414 14.7205 6.9577C14.7278 6.95125 14.7743 6.89321 14.8239 6.82873C14.8734 6.76424 14.9199 6.70621 14.9271 6.69976C14.9343 6.69331 14.9991 6.61417 15.071 6.52389C15.143 6.43361 15.2076 6.35447 15.2147 6.34802C15.2218 6.34158 15.266 6.28882 15.313 6.23078C15.36 6.17274 15.4375 6.08041 15.4852 6.0256C15.5329 5.97079 15.6205 5.86791 15.6799 5.79697C15.7394 5.72604 15.7939 5.66273 15.8012 5.65628C15.8084 5.64983 15.878 5.57069 15.9557 5.48041C16.0334 5.39014 16.1574 5.25032 16.2312 5.16972C16.305 5.08911 16.437 4.94402 16.5245 4.84729C17.0012 4.32053 17.8616 3.44259 18.633 2.69599C18.7688 2.56449 18.9593 2.37746 19.0562 2.28035C19.1531 2.18323 19.2384 2.09798 19.2457 2.0909C19.3459 1.99382 19.5845 1.72916 19.6692 1.62109C19.8254 1.42178 19.8705 1.34817 19.9472 1.16739C19.9752 1.10143 20 0.955905 20 0.857561C20 0.760072 19.9716 0.604078 19.9474 0.568823C19.9384 0.555762 19.9311 0.538703 19.9311 0.530918C19.9311 0.505218 19.841 0.377843 19.7758 0.31126C19.6825 0.216023 19.5211 0.121101 19.3624 0.0681773C19.2226 0.0215375 18.9116 -0.0141634 18.8168 0.00553368Z" fill="#2982E7"></path></svg> 