<?xml version="1.0" encoding="UTF-8"?> <!-- Generator: Adobe Illustrator 24.2.3, SVG Export Plug-In . SVG Version: 6.00 Build 0) --> <svg xmlns="http://www.w3.org/2000/svg" xmlns:xlink="http://www.w3.org/1999/xlink" id="Capa_1" x="0px" y="0px" viewBox="0 0 1920 168.4" style="enable-background:new 0 0 1920 168.4;" xml:space="preserve"> <style type="text/css"> .st0{filter:url(#Adobe_OpacityMaskFilter);} .st1{filter:url(#Adobe_OpacityMaskFilter_1_);} .st2{mask:url(#SVGID_1_);fill:url(#SVGID_2_);} .st3{opacity:0.24;fill:url(#SVGID_3_);} .st4{fill:#FF9600;} .st5{fill:#FFFFFF;} </style> <defs> <filter id="Adobe_OpacityMaskFilter" filterUnits="userSpaceOnUse" x="0" y="0" width="1920" height="159.4"> <feColorMatrix type="matrix" values="1 0 0 0 0 0 1 0 0 0 0 0 1 0 0 0 0 0 1 0"></feColorMatrix> </filter> </defs> <mask maskUnits="userSpaceOnUse" x="0" y="0" width="1920" height="159.4" id="SVGID_1_"> <g class="st0"> <defs> <filter id="Adobe_OpacityMaskFilter_1_" filterUnits="userSpaceOnUse" x="0" y="76.4" width="1920" height="83"> <feFlood style="flood-color:white;flood-opacity:1" result="back"></feFlood> <feBlend in="SourceGraphic" in2="back" mode="normal"></feBlend> </filter> </defs> <mask maskUnits="userSpaceOnUse" x="0" y="76.4" width="1920" height="83" id="SVGID_1_"> </mask> <linearGradient id="SVGID_2_" gradientUnits="userSpaceOnUse" x1="960" y1="146.4853" x2="960" y2="76.4652"> <stop offset="0" style="stop-color:#B3B3B3"></stop> <stop offset="0.1221" style="stop-color:#ADADAD"></stop> <stop offset="0.2755" style="stop-color:#9E9E9E"></stop> <stop offset="0.4458" style="stop-color:#848484"></stop> <stop offset="0.6282" style="stop-color:#606060"></stop> <stop offset="0.818" style="stop-color:#333333"></stop> <stop offset="1" style="stop-color:#000000"></stop> </linearGradient> <path class="st2" d="M0,76.4v83L8.3,146l5.6-3.6l8.1-3l20.9-2.4l13.6-1c0,0,5.2-0.1,16.2-1.2c11.1-1.1,10.4-0.8,20.9-2.7 c10.5-1.9,21-3.5,21-3.5l4-0.7l20.1,3.4l18.2,3.1c0,0,25.8-1,27.8-0.9c1.9,0,23.1,0.5,23.1,0.5l22.2,1.9l10.2,0.2l7.4,8.4l4.4,0.4 c0,0,10.8,1.1,14,0.9c3.2-0.2,5.2-0.4,5.2-0.4s5.2-0.4,9.8-1.4c4.6-1,2.7-1,8.6-1.9c5.9-0.9,10.4-1.1,11.9-2.1c1.4-1,7,0.7,7,0.7 l22.6-0.8l13.1-1.6l9.2-1.3l6.2,1.7l5.5,1.8l8.1,1.5l18.1-0.6l12.1,4.1l29.7,0.6c0,0,4.5,0.1,7.7-0.1c3.2-0.2,8.1,1.5,10,2.1 c1.8,0.6,9.8-0.2,9.8-0.2l7,0.4l9.6,0.2l11.2-3.4c0,0,24-1.6,29.9-2.2c5.9-0.7,7.7,0.2,7.7,0.2l29.3,2l12.4,2.9l15.7-5l3.2-0.2 l13.9,1.9l21.2-0.3l11.6-0.3l11.1-1.1l6.6,3.1l1.6-2.1l8.4-0.3l3.8-1.6l13.5,0.1l3.2,0.3l-0.4,2.9l12.6,2.2l21.3-5.3l13.6-0.5 l15,1.2l5.7,1.2l15.4,2l16.2-5.7l17.7,7.4l5,0.6l7.3,0.2l18.1-2l10.1-1.9l13.4,0.3l9,0.5l9-0.3l14.3-1.3l9.3,4.2l7.6,0.2l15.5,0.4 l6.4,0.2l12.8,0.6l6.4-0.1l11.3-3l11.7-1l10.9,0.3l4.3,1.4l9.6,0.2l12.9,0.3l14.2-1.2l8.5-1.1l8.1-0.6l4.4-1.5l4-1.2l4.8-1.7 l7.3-2l5.6-0.7l11.7,0.8l3.8,0.6l16,0.1l15.6-1.2c0,0,10.5-1.6,14.6-3.1c4.1-1.5,8.8-3.2,8.8-3.2l1.5-1.6l13.9,1.9l12.8,6.7 l9.7-0.6l6.5-0.4l4.4,0.4l10.7,1.6l5.2-0.4l7.2-1.2l8.5-0.9l6.4-0.1l19.2,0.5l11.4,1.3l6.2,1.5c0,0,6.5-0.4,19.8-3.8 c13.3-3.4,14.8,0.1,14.8,0.1l34,8l7.5,0.7l5.9-0.7l11.1-1.6l5.7,0.7l5.7,0.9l5.2-0.7l2.8-1.5l5.1,0.1l8.4-0.1c0,0,28,2.7,30.6,2.3 c2.6-0.5,7.9-1.4,7.9-1.4l9.8-0.8l8.2-3.5l5.9-0.7l7,0.2l7.1-0.4c0,0,14.2-0.5,18.7-0.6c4.5-0.2,13.5,0.3,13.5,0.3l9.8,3.2 l8.5,3.9l15.4,0.1l4.5,0.1c0,0,7.9-2.2,9.8-1.6c1.8,0.6,5.1,0.7,5.1,0.7l11.3,1.6l8.3,0.5l7.5,1.2c0,0,6.4-6.2,10.4-6.9l1-2.4 l6.6-0.9l6.4,0.2l10.4-0.6c0,0,4.6-0.7,6.6-0.9c2-0.2,0.2-1.3,0.3-2.1c0.1-0.8,2.1-1,5.6-3.6l6.8,2l-1.1,3.2l4.9,1.4l6.8,1.8 l4.3,1.2l8.9,1l11.9,2.1l5.8,0.1l3.2,0.1l13.5,0.1l5.4-1.7l12.6,1.9l15.4-6l6.5-0.6l4.4-3.9l7,0.2l14.1,0.3l5,1.2l18.5,1l3.9-0.2 l4-1.2l10.9,0.3l6.9,1.2l11.3,2.1l13.2,2.2l7.3-1.7l8.3,0.2l21.5,2.4l4.2,2.5l12.2,0.3l4-1.2l10.9,0.5l-2.3,2.6l9.2-1.6l24-1.6 V76.4H0z"></path> </g> </mask> <linearGradient id="SVGID_3_" gradientUnits="userSpaceOnUse" x1="960" y1="134.6375" x2="960" y2="0.1479"> <stop offset="0" style="stop-color:#FF9600"></stop> <stop offset="0.4084" style="stop-color:#F2B864;stop-opacity:0.5916"></stop> <stop offset="0.8168" style="stop-color:#E6D7C3;stop-opacity:0.1832"></stop> <stop offset="1" style="stop-color:#E1E4E8;stop-opacity:0"></stop> </linearGradient> <path class="st3" d="M0,0v159.4L8.3,146l5.6-3.6l8.1-3l20.9-2.4l13.6-1c0,0,5.2-0.1,16.2-1.2c11.1-1.1,10.4-0.8,20.9-2.7 c10.5-1.9,21-3.5,21-3.5l4-0.7l20.1,3.4l18.2,3.1c0,0,25.8-1,27.8-0.9c1.9,0,23.1,0.5,23.1,0.5l22.2,1.9l10.2,0.2l7.4,8.4l4.4,0.4 c0,0,10.8,1.1,14,0.9c3.2-0.2,5.2-0.4,5.2-0.4s5.2-0.4,9.8-1.4c4.6-1,2.7-1,8.6-1.9c5.9-0.9,10.4-1.1,11.9-2.1c1.4-1,7,0.7,7,0.7 l22.6-0.8l13.1-1.6l9.2-1.3l6.2,1.7l5.5,1.8l8.1,1.5l18.1-0.6l12.1,4.1l29.7,0.6c0,0,4.5,0.1,7.7-0.1c3.2-0.2,8.1,1.5,10,2.1 c1.8,0.6,9.8-0.2,9.8-0.2l7,0.4l9.6,0.2l11.2-3.4c0,0,24-1.6,29.9-2.2c5.9-0.7,7.7,0.2,7.7,0.2l29.3,2l12.4,2.9l15.7-5l3.2-0.2 l13.9,1.9l21.2-0.3l11.6-0.3l11.1-1.1l6.6,3.1l1.6-2.1l8.4-0.3l3.8-1.6l13.5,0.1l3.2,0.3l-0.4,2.9l12.6,2.2l21.3-5.3l13.6-0.5 l15,1.2l5.7,1.2l15.4,2l16.2-5.7l17.7,7.4l5,0.6l7.3,0.2l18.1-2l10.1-1.9l13.4,0.3l9,0.5l9-0.3l14.3-1.3l9.3,4.2l7.6,0.2l15.5,0.4 l6.4,0.2l12.8,0.6l6.4-0.1l11.3-3l11.7-1l10.9,0.3l4.3,1.4l9.6,0.2l12.9,0.3l14.2-1.2l8.5-1.1l8.1-0.6l4.4-1.5l4-1.2l4.8-1.7l7.3-2 l5.6-0.7l11.7,0.8l3.8,0.6l16,0.1l15.6-1.2c0,0,10.5-1.6,14.6-3.1c4.1-1.5,8.8-3.2,8.8-3.2l1.5-1.6l13.9,1.9l12.8,6.7l9.7-0.6 l6.5-0.4l4.4,0.4l10.7,1.6l5.2-0.4l7.2-1.2l8.5-0.9l6.4-0.1l19.2,0.5l11.4,1.3l6.2,1.5c0,0,6.5-0.4,19.8-3.8 c13.3-3.4,14.8,0.1,14.8,0.1l34,8l7.5,0.7l5.9-0.7l11.1-1.6l5.7,0.7l5.7,0.9l5.2-0.7l2.8-1.5l5.1,0.1l8.4-0.1c0,0,28,2.7,30.6,2.3 c2.6-0.5,7.9-1.4,7.9-1.4l9.8-0.8l8.2-3.5l5.9-0.7l7,0.2l7.1-0.4c0,0,14.2-0.5,18.7-0.6c4.5-0.2,13.5,0.3,13.5,0.3l9.8,3.2l8.5,3.9 l15.4,0.1l4.5,0.1c0,0,7.9-2.2,9.8-1.6c1.8,0.6,5.1,0.7,5.1,0.7l11.3,1.6l8.3,0.5l7.5,1.2c0,0,6.4-6.2,10.4-6.9l1-2.4l6.6-0.9 l6.4,0.2l10.4-0.6c0,0,4.6-0.7,6.6-0.9c2-0.2,0.2-1.3,0.3-2.1c0.1-0.8,2.1-1,5.6-3.6l6.8,2l-1.1,3.2l4.9,1.4l6.8,1.8l4.3,1.2l8.9,1 l11.9,2.1l5.8,0.1l3.2,0.1l13.5,0.1l5.4-1.7l12.6,1.9l15.4-6l6.5-0.6l4.4-3.9l7,0.2l14.1,0.3l5,1.2l18.5,1l3.9-0.2l4-1.2l10.9,0.3 l6.9,1.2l11.3,2.1l13.2,2.2l7.3-1.7l8.3,0.2l21.5,2.4l4.2,2.5l12.2,0.3l4-1.2l10.9,0.5l-2.3,2.6l9.2-1.6l24-1.6V0H0z"></path> <path class="st4" d="M1920,140.4c-8,0.4-16,0.9-24,1.3l-9.2,1.4l2.3-2.1l-10.9-0.4l-4,1l-12.2-0.2l-4.2-2l-21.5-1.9l-8.3-0.2 l-7.3,1.4l-13.2-1.8l-11.3-1.7l-6.9-1l-10.9-0.2l-4,1l-3.9,0.1l-18.5-0.8l-5-1l-14.1-0.3l-7-0.1l-4.4,3.2l-6.5,0.5l-15.4,4.9 l-12.6-1.6l-5.4,1.4l-13.5,0l-3.2-0.1l-5.8-0.1l-11.9-1.8l-8.9-0.8l-4.3-1l-6.8-1.4l-4.9-1.2l1.1-2.6l-6.8-1.7 c-3.6,2.1-5.5,2.3-5.6,3c-0.1,0.7,1.7,1.6-0.3,1.7c-2,0.2-6.6,0.7-6.6,0.7l-10.4,0.5l-6.4-0.1l-6.6,0.7l-1,1.9 c-4,0.6-10.4,5.7-10.4,5.7l-7.5-1l-8.3-0.4l-11.3-1.3c0,0-3.2-0.1-5.1-0.5c-1.8-0.5-9.8,1.3-9.8,1.3l-4.5-0.1l-15.4-0.1l-8.5-3.2 l-9.8-2.6c0,0-8.9-0.4-13.5-0.3c-4.5,0.1-18.7,0.5-18.7,0.5l-7.1,0.3l-7-0.1l-5.9,0.5l-8.2,2.9l-9.8,0.7c0,0-5.3,0.8-7.9,1.2 c-2.6,0.4-30.6-1.9-30.6-1.9l-8.4,0.1l-5.1-0.1l-2.8,1.3l-5.2,0.6l-5.7-0.8l-5.7-0.5l-11.1,1.3l-5.9,0.5l-7.5-0.6l-34-6.6 c0,0-1.4-2.9-14.8-0.1c-13.3,2.8-19.8,3.1-19.8,3.1l-6.2-1.2l-11.4-1.1l-19.2-0.4l-6.4,0.1l-8.5,0.7l-7.2,1l-5.2,0.3l-10.7-1.3 l-4.4-0.3l-6.5,0.3l-9.7,0.5l-12.8-5.5l-13.9-1.6l-1.5,1.3c0,0-4.7,1.4-8.8,2.7c-4.1,1.2-14.6,2.6-14.6,2.6l-15.6,1l-16.1-0.1 l-3.8-0.5l-11.7-0.7l-5.6,0.5l-7.3,1.6l-4.8,1.4l-4,1l-4.4,1.2l-8.1,0.5l-8.5,0.9l-14.2,1l-12.9-0.3l-9.6-0.2l-4.3-1.1l-10.9-0.2 l-11.7,0.8l-11.3,2.5l-6.4,0.1l-12.8-0.5l-6.4-0.1l-15.5-0.3l-7.6-0.1l-9.3-3.5l-14.3,1l-9,0.3l-9-0.4l-13.4-0.3l-10.1,1.6 l-18.1,1.6l-7.3-0.1l-5-0.5l-17.7-6.1l-16.2,4.7l-15.4-1.6l-5.7-1l-15-0.9l-13.6,0.4l-21.3,4.4l-12.6-1.8l0.4-2.4l-3.2-0.3l-13.5,0 l-3.8,1.3l-8.4,0.3l-1.6,1.7l-6.6-2.5l-11.1,0.9l-11.6,0.2l-21.2,0.2l-13.9-1.6l-3.2,0.2l-15.7,4.1l-12.4-2.4l-29.3-1.7 c0,0-1.8-0.7-7.7-0.1c-5.9,0.5-29.9,1.8-29.9,1.8l-11.2,2.8l-9.6-0.2l-7-0.4c0,0-8,0.6-9.8,0.2c-1.8-0.5-6.8-1.9-10-1.7 c-3.2,0.2-7.7,0.1-7.7,0.1l-29.7-0.5l-12.1-3.3l-18.1,0.5l-8.1-1.3l-5.5-1.5l-6.2-1.4l-9.2,1.1l-13.1,1.3l-22.6,0.7 c0,0-5.5-1.4-7-0.6c-1.4,0.8-5.9,1-11.9,1.7c-5.9,0.8-4,0.8-8.6,1.6c-4.6,0.8-9.8,1.1-9.8,1.1s-2,0.2-5.2,0.3 c-3.2,0.2-14-0.7-14-0.7l-4.4-0.3l-7.4-6.9l-10.2-0.2l-22.2-1.5c0,0-21.1-0.4-23.1-0.4c-1.9,0-27.8,0.8-27.8,0.8l-18.2-2.5 l-20.1-2.8l-4,0.6c0,0-10.5,1.3-21,2.9c-10.5,1.5-9.9,1.3-20.9,2.2c-11.1,0.9-16.2,1-16.2,1l-13.6,0.8l-20.9,2l-8.1,2.5l-5.6,3 l-4.6,6.1H0v18.6h1920c0-6.2,0-12.4,0-18.6C1920,146.6,1920,143.5,1920,140.4z"></path> </svg> 