<?xml version="1.0" encoding="UTF-8"?> <svg xmlns="http://www.w3.org/2000/svg" viewBox="0 0 100 100" fill-rule="evenodd"><rect x="0" y="0" width="100" height="100" fill="#ffb500" rx="50" ry="50"></rect><path d="m90 33.438c-2.4492 0.003906-4.5781 1.6797-5.1562 4.0625l-2.8125 12.188c-2.9062-1.5742-6.5312-0.61719-8.2812 2.1875l-4.8438 7.5c-1.1953 1.7852-2.6133 3.4141-4.2188 4.8438l-3.5938 3.4375c-4.082 3.5977-6.418 8.7773-6.4062 14.219v8.75c0 2.6758 2.168 4.8438 4.8438 4.8438h14.844c1.2852 0 2.5156-0.51172 3.4258-1.418 0.90625-0.91016 1.418-2.1406 1.418-3.4258v-2.3438c0.011719-1.2539 0.44922-2.4688 1.25-3.4375l8.4375-9.6875c4.0977-4.7305 6.3711-10.773 6.4062-17.031v-19.375c0-1.4102-0.55859-2.7617-1.5547-3.7578-0.99609-0.99609-2.3477-1.5547-3.7578-1.5547zm2.1875 24.688c-0.027344 5.5117-2.0234 10.828-5.625 15l-8.4375 9.6875c-1.2812 1.5352-2 3.4688-2.0312 5.4688v2.3438c0 0.94922-0.76953 1.7188-1.7188 1.7188h-14.844c-0.45703 0-0.89453-0.17969-1.2148-0.50391-0.32422-0.32031-0.50391-0.75781-0.50391-1.2148v-8.75c-0.003906-4.5781 1.9258-8.9492 5.3125-12.031l3.75-3.2812c1.7578-1.6055 3.2812-3.4453 4.5312-5.4688l5-7.5c0.62109-0.95312 1.6758-1.5391 2.8125-1.5625 0.60938 0.09375 1.1914 0.30469 1.7188 0.625 1.4023 0.98047 1.8711 2.8477 1.0938 4.375l-7.0312 12.031c-0.29688 0.35156-0.42188 0.81641-0.34375 1.2695s0.35156 0.84766 0.75 1.082c0.39453 0.23438 0.875 0.28125 1.3086 0.12891 0.43359-0.15234 0.77734-0.48828 0.94141-0.91797l7.0312-12.031c1.1758-1.9727 1.1758-4.4336 0-6.4062l3.2812-13.906c0.15625-1 1.0195-1.7305 2.0312-1.7188 0.58203 0 1.1367 0.23047 1.5469 0.64062s0.64062 0.96484 0.64062 1.5469zm-56.875 6.0938c-1.6055-1.4297-3.0234-3.0586-4.2188-4.8438l-4.8438-7.5c-1.75-2.8047-5.375-3.7617-8.2812-2.1875l-2.8125-12.188c-0.57812-2.3828-2.707-4.0586-5.1562-4.0625-2.9336 0-5.3125 2.3789-5.3125 5.3125v19.375c0.035156 6.2578 2.3086 12.301 6.4062 17.031l8.4375 9.6875c0.80078 0.96875 1.2383 2.1836 1.25 3.4375v2.3438c0 2.6758 2.168 4.8438 4.8438 4.8438h14.844c2.6758 0 4.8438-2.168 4.8438-4.8438v-8.75c0.011719-5.4414-2.3242-10.621-6.4062-14.219zm6.875 26.406c0 0.94922-0.76953 1.7188-1.7188 1.7188h-14.844c-0.94922 0-1.7188-0.76953-1.7188-1.7188v-2.3438c-0.03125-2-0.75-3.9336-2.0312-5.4688l-8.4375-9.6875c-3.6016-4.1719-5.5977-9.4883-5.625-15v-19.375c0-1.207 0.98047-2.1875 2.1875-2.1875 1.0117-0.011719 1.875 0.71875 2.0312 1.7188l3.2812 13.906c-1.1758 1.9727-1.1758 4.4336 0 6.4062l7.0312 12.031c0.16406 0.42969 0.50781 0.76562 0.94141 0.91797 0.43359 0.15234 0.91406 0.10547 1.3086-0.12891 0.39844-0.23437 0.67188-0.62891 0.75-1.082s-0.046875-0.91797-0.34375-1.2695l-7.0312-12.031c-0.77734-1.5273-0.30859-3.3945 1.0938-4.375 1.5117-0.98828 3.5352-0.56641 4.5312 0.9375l5 7.5c1.25 2.0234 2.7734 3.8633 4.5312 5.4688l3.75 3.2812c3.3867 3.082 5.3164 7.4531 5.3125 12.031zm-16.875-49.688h9.8438c-1.0078 1.8203-1.543 3.8594-1.5625 5.9375v1.4062c0 4.5117 3.6133 8.1953 8.125 8.2812h15c5.3516 0 9.6875-4.3359 9.6875-9.6875-0.019531-2.0781-0.55469-4.1172-1.5625-5.9375h9.8438c4.5117-0.085938 8.125-3.7695 8.125-8.2812-0.066406-5.5156-4.3438-10.062-9.8438-10.469 3.1562-1.5508 5.1602-4.7617 5.1562-8.2812 0-5.1758-4.1992-9.375-9.375-9.375s-9.375 4.1992-9.375 9.375c-0.003906 3.5195 2 6.7305 5.1562 8.2812-1.2891 0.125-2.5547 0.44141-3.75 0.9375-0.93359-5.2461-5.5156-9.0586-10.848-9.0195-5.3281 0.039062-9.8555 3.9141-10.715 9.1758-1.1602-0.62109-2.4375-0.99219-3.75-1.0938 3.1562-1.5508 5.1602-4.7617 5.1562-8.2812 0-5.1758-4.1992-9.375-9.375-9.375s-9.375 4.1992-9.375 9.375c-0.003906 3.5195 2 6.7305 5.1562 8.2812-5.5 0.40625-9.7773 4.9531-9.8438 10.469 0 4.5117 3.6133 8.1953 8.125 8.2812zm31.406 12.5h-15c-2.7852-0.085938-5-2.3672-5-5.1562v-1.4062c0.082031-4.8828 4.0234-8.8242 8.9062-8.9062h8.75c4.8828 0.082031 8.8242 4.0234 8.9062 8.9062 0 1.7422-0.69141 3.4102-1.9219 4.6406s-2.8984 1.9219-4.6406 1.9219zm-11.562-19.062 1.0938 0.46875h-1.25c0-0.15625 0.15625-0.3125 0.15625-0.46875zm9.6875 0c0 0.15625 0.15625 0.3125 0.15625 0.46875h-1.25zm24.844-1.7188c0 2.7891-2.2148 5.0703-5 5.1562h-12.5c-1.0234-0.90625-2.1836-1.6445-3.4375-2.1875h-0.15625c-0.49609-0.91016-0.76562-1.9297-0.78125-2.9688v-0.46875c1.3789-1.4375 2.3477-3.2188 2.8125-5.1562 1.3086-1.1133 2.9688-1.7227 4.6875-1.7188h6.875c1.9766-0.042969 3.8828 0.71484 5.293 2.0938 1.4141 1.3828 2.207 3.2734 2.207 5.25zm-17.188-18.75c0-2.5273 1.5234-4.8086 3.8594-5.7734 2.3359-0.96875 5.0234-0.43359 6.8086 1.3555 1.7891 1.7852 2.3242 4.4727 1.3555 6.8086-0.96484 2.3359-3.2461 3.8594-5.7734 3.8594-3.4531 0-6.25-2.7969-6.25-6.25zm-12.5 3.125c4.2266 0 7.6562 3.4297 7.6562 7.6562s-3.4297 7.6562-7.6562 7.6562-7.6562-3.4297-7.6562-7.6562 3.4297-7.6562 7.6562-7.6562zm-25-3.125c0-2.5273 1.5234-4.8086 3.8594-5.7734 2.3359-0.96875 5.0234-0.43359 6.8086 1.3555 1.7891 1.7852 2.3242 4.4727 1.3555 6.8086-0.96484 2.3359-3.2461 3.8594-5.7734 3.8594-3.4531 0-6.25-2.7969-6.25-6.25zm2.8125 11.406h6.875c1.6953-0.035156 3.3516 0.51562 4.6875 1.5625 0.44922 2.0703 1.4766 3.9648 2.9688 5.4688v0.3125c-0.019531 0.9375-0.28906 1.8555-0.78125 2.6562v0.3125c-1.3516 0.44141-2.582 1.1914-3.5938 2.1875h-12.5c-2.8477 0-5.1562-2.3086-5.1562-5.1562 0-1.9766 0.79297-3.8672 2.207-5.25 1.4102-1.3789 3.3164-2.1367 5.293-2.0938z" fill="#333333"></path></svg>